<svg xmlns="http://www.w3.org/2000/svg" fill="currentColor" viewBox="0 0 900 400">
  <rect x="0.00" y="0" width="1.50" height="49" rx="0.8"/>
  <rect x="5.80" y="0" width="1.83" height="20" rx="0.9"/>
  <rect x="11.37" y="0" width="1.84" height="46" rx="0.9"/>
  <rect x="17.66" y="0" width="2.07" height="43" rx="1.0"/>
  <rect x="23.94" y="0" width="1.86" height="61" rx="0.9"/>
  <rect x="30.35" y="0" width="1.58" height="20" rx="0.8"/>
  <rect x="35.97" y="0" width="2.02" height="37" rx="1.0"/>
  <rect x="41.87" y="0" width="1.61" height="20" rx="0.8"/>
  <rect x="47.59" y="0" width="1.73" height="78" rx="0.9"/>
  <rect x="53.78" y="0" width="1.90" height="27" rx="0.9"/>
  <rect x="60.23" y="0" width="1.97" height="82" rx="1.0"/>
  <rect x="66.18" y="0" width="1.98" height="57" rx="1.0"/>
  <rect x="72.66" y="0" width="1.87" height="62" rx="0.9"/>
  <rect x="78.73" y="0" width="2.18" height="66" rx="1.1"/>
  <rect x="84.44" y="0" width="2.37" height="54" rx="1.2"/>
  <rect x="90.52" y="0" width="2.27" height="39" rx="1.1"/>
  <rect x="96.31" y="0" width="2.44" height="45" rx="1.2"/>
  <rect x="102.23" y="0" width="2.02" height="36" rx="1.0"/>
  <rect x="107.61" y="0" width="2.00" height="67" rx="1.0"/>
  <rect x="114.14" y="0" width="2.38" height="60" rx="1.2"/>
  <rect x="119.96" y="0" width="1.88" height="90" rx="0.9"/>
  <rect x="125.64" y="0" width="2.00" height="59" rx="1.0"/>
  <rect x="131.21" y="0" width="2.25" height="86" rx="1.1"/>
  <rect x="137.25" y="0" width="2.41" height="81" rx="1.2"/>
  <rect x="143.82" y="0" width="1.92" height="88" rx="1.0"/>
  <rect x="149.03" y="0" width="2.38" height="121" rx="1.2"/>
  <rect x="155.49" y="0" width="2.52" height="66" rx="1.3"/>
  <rect x="161.58" y="0" width="2.17" height="111" rx="1.1"/>
  <rect x="167.15" y="0" width="2.10" height="56" rx="1.0"/>
  <rect x="173.29" y="0" width="2.68" height="128" rx="1.3"/>
  <rect x="179.66" y="0" width="2.61" height="102" rx="1.3"/>
  <rect x="186.82" y="0" width="2.06" height="66" rx="1.0"/>
  <rect x="192.29" y="0" width="1.94" height="129" rx="1.0"/>
  <rect x="198.51" y="0" width="2.09" height="90" rx="1.0"/>
  <rect x="205.06" y="0" width="2.47" height="68" rx="1.2"/>
  <rect x="211.96" y="0" width="2.09" height="136" rx="1.0"/>
  <rect x="218.23" y="0" width="2.19" height="99" rx="1.1"/>
  <rect x="224.64" y="0" width="2.13" height="90" rx="1.1"/>
  <rect x="230.53" y="0" width="2.71" height="144" rx="1.4"/>
  <rect x="236.58" y="0" width="2.71" height="107" rx="1.4"/>
  <rect x="243.37" y="0" width="2.55" height="73" rx="1.3"/>
  <rect x="249.24" y="0" width="2.16" height="105" rx="1.1"/>
  <rect x="254.79" y="0" width="2.73" height="96" rx="1.4"/>
  <rect x="260.93" y="0" width="2.24" height="98" rx="1.1"/>
  <rect x="266.62" y="0" width="2.63" height="141" rx="1.3"/>
  <rect x="273.31" y="0" width="2.73" height="122" rx="1.4"/>
  <rect x="279.87" y="0" width="2.88" height="95" rx="1.4"/>
  <rect x="285.93" y="0" width="2.72" height="116" rx="1.4"/>
  <rect x="292.50" y="0" width="2.27" height="157" rx="1.1"/>
  <rect x="298.13" y="0" width="2.81" height="160" rx="1.4"/>
  <rect x="305.32" y="0" width="2.71" height="95" rx="1.4"/>
  <rect x="311.66" y="0" width="2.34" height="118" rx="1.2"/>
  <rect x="317.12" y="0" width="2.57" height="115" rx="1.3"/>
  <rect x="323.72" y="0" width="2.98" height="151" rx="1.5"/>
  <rect x="330.11" y="0" width="2.92" height="131" rx="1.5"/>
  <rect x="336.65" y="0" width="3.04" height="164" rx="1.5"/>
  <rect x="342.99" y="0" width="2.52" height="180" rx="1.3"/>
  <rect x="349.48" y="0" width="2.41" height="165" rx="1.2"/>
  <rect x="355.21" y="0" width="2.79" height="161" rx="1.4"/>
  <rect x="362.27" y="0" width="3.02" height="188" rx="1.5"/>
  <rect x="368.51" y="0" width="2.98" height="120" rx="1.5"/>
  <rect x="374.76" y="0" width="2.75" height="136" rx="1.4"/>
  <rect x="381.85" y="0" width="2.88" height="148" rx="1.4"/>
  <rect x="388.72" y="0" width="3.09" height="124" rx="1.5"/>
  <rect x="395.87" y="0" width="2.88" height="180" rx="1.4"/>
  <rect x="402.41" y="0" width="2.85" height="168" rx="1.4"/>
  <rect x="408.49" y="0" width="2.73" height="133" rx="1.4"/>
  <rect x="414.25" y="0" width="3.07" height="158" rx="1.5"/>
  <rect x="421.15" y="0" width="2.77" height="193" rx="1.4"/>
  <rect x="427.32" y="0" width="2.64" height="156" rx="1.3"/>
  <rect x="432.92" y="0" width="2.79" height="193" rx="1.4"/>
  <rect x="439.16" y="0" width="2.65" height="165" rx="1.3"/>
  <rect x="445.32" y="0" width="3.16" height="143" rx="1.6"/>
  <rect x="452.48" y="0" width="3.28" height="158" rx="1.6"/>
  <rect x="459.67" y="0" width="3.03" height="171" rx="1.5"/>
  <rect x="466.01" y="0" width="3.28" height="151" rx="1.6"/>
  <rect x="473.19" y="0" width="2.69" height="210" rx="1.3"/>
  <rect x="478.84" y="0" width="2.88" height="211" rx="1.4"/>
  <rect x="484.56" y="0" width="3.35" height="190" rx="1.7"/>
  <rect x="492.10" y="0" width="3.19" height="164" rx="1.6"/>
  <rect x="498.34" y="0" width="3.37" height="192" rx="1.7"/>
  <rect x="505.65" y="0" width="2.73" height="210" rx="1.4"/>
  <rect x="512.22" y="0" width="3.40" height="229" rx="1.7"/>
  <rect x="518.50" y="0" width="3.00" height="167" rx="1.5"/>
  <rect x="524.20" y="0" width="3.02" height="174" rx="1.5"/>
  <rect x="530.26" y="0" width="2.92" height="233" rx="1.5"/>
  <rect x="536.87" y="0" width="3.07" height="224" rx="1.5"/>
  <rect x="542.77" y="0" width="2.92" height="239" rx="1.5"/>
  <rect x="548.54" y="0" width="3.49" height="183" rx="1.7"/>
  <rect x="555.97" y="0" width="3.45" height="188" rx="1.7"/>
  <rect x="563.24" y="0" width="3.20" height="206" rx="1.6"/>
  <rect x="570.32" y="0" width="3.35" height="206" rx="1.7"/>
  <rect x="576.95" y="0" width="3.28" height="262" rx="1.6"/>
  <rect x="583.59" y="0" width="3.11" height="258" rx="1.6"/>
  <rect x="590.09" y="0" width="3.44" height="200" rx="1.7"/>
  <rect x="596.71" y="0" width="3.47" height="268" rx="1.7"/>
  <rect x="603.15" y="0" width="3.36" height="195" rx="1.7"/>
  <rect x="609.37" y="0" width="2.89" height="226" rx="1.4"/>
  <rect x="614.92" y="0" width="3.60" height="212" rx="1.8"/>
  <rect x="621.28" y="0" width="3.18" height="239" rx="1.6"/>
  <rect x="627.72" y="0" width="3.30" height="233" rx="1.7"/>
  <rect x="633.69" y="0" width="3.15" height="274" rx="1.6"/>
  <rect x="640.05" y="0" width="3.38" height="226" rx="1.7"/>
  <rect x="646.91" y="0" width="3.73" height="279" rx="1.9"/>
  <rect x="654.31" y="0" width="3.15" height="289" rx="1.6"/>
  <rect x="661.09" y="0" width="3.65" height="236" rx="1.8"/>
  <rect x="667.51" y="0" width="3.58" height="284" rx="1.8"/>
  <rect x="674.20" y="0" width="3.32" height="272" rx="1.7"/>
  <rect x="680.06" y="0" width="3.73" height="295" rx="1.9"/>
  <rect x="687.43" y="0" width="3.82" height="255" rx="1.9"/>
  <rect x="695.07" y="0" width="3.21" height="294" rx="1.6"/>
  <rect x="700.68" y="0" width="3.69" height="247" rx="1.8"/>
  <rect x="707.87" y="0" width="3.27" height="307" rx="1.6"/>
  <rect x="714.75" y="0" width="3.85" height="251" rx="1.9"/>
  <rect x="721.64" y="0" width="3.27" height="245" rx="1.6"/>
  <rect x="728.35" y="0" width="3.26" height="274" rx="1.6"/>
  <rect x="735.32" y="0" width="3.45" height="276" rx="1.7"/>
  <rect x="741.61" y="0" width="3.73" height="279" rx="1.9"/>
  <rect x="748.94" y="0" width="3.41" height="295" rx="1.7"/>
  <rect x="754.86" y="0" width="3.61" height="294" rx="1.8"/>
  <rect x="761.71" y="0" width="3.43" height="307" rx="1.7"/>
  <rect x="768.84" y="0" width="3.84" height="317" rx="1.9"/>
  <rect x="776.11" y="0" width="3.70" height="289" rx="1.9"/>
  <rect x="782.90" y="0" width="3.27" height="285" rx="1.6"/>
  <rect x="788.73" y="0" width="3.79" height="265" rx="1.9"/>
  <rect x="795.01" y="0" width="3.31" height="265" rx="1.7"/>
  <rect x="800.89" y="0" width="3.84" height="286" rx="1.9"/>
  <rect x="807.75" y="0" width="3.68" height="282" rx="1.8"/>
  <rect x="814.26" y="0" width="3.89" height="281" rx="1.9"/>
  <rect x="820.71" y="0" width="3.38" height="291" rx="1.7"/>
  <rect x="826.33" y="0" width="4.08" height="274" rx="2.0"/>
  <rect x="832.92" y="0" width="3.61" height="336" rx="1.8"/>
  <rect x="839.31" y="0" width="3.69" height="331" rx="1.8"/>
  <rect x="846.42" y="0" width="3.39" height="328" rx="1.7"/>
  <rect x="853.35" y="0" width="3.89" height="290" rx="1.9"/>
  <rect x="860.02" y="0" width="3.65" height="328" rx="1.8"/>
  <rect x="867.18" y="0" width="4.22" height="347" rx="2.1"/>
  <rect x="874.17" y="0" width="3.68" height="329" rx="1.8"/>
  <rect x="880.75" y="0" width="3.66" height="351" rx="1.8"/>
  <rect x="887.35" y="0" width="3.61" height="361" rx="1.8"/>
  <rect x="893.20" y="0" width="3.95" height="319" rx="2.0"/>
  <rect x="899.63" y="0" width="3.91" height="354" rx="2.0"/>
</svg>