<svg width="147" height="32" viewBox="0 0 147 32" fill="none" xmlns="http://www.w3.org/2000/svg">
<path d="M11.7139 0.854366C12.0261 0.854366 12.2789 1.10726 12.2789 1.41939V1.98669H1.13232V2.84105H12.2789V26.6061C12.2789 26.9182 12.0261 27.1711 11.7139 27.1711H11.1614V28.0255H20.0582V27.1711H19.5057C19.1936 27.1711 18.9407 26.9182 18.9407 26.6061V2.84105H30.101V1.98669H18.9407V1.41939C18.9407 1.10726 19.1936 0.854366 19.5057 0.854366H31.2345V0H0V0.854366H11.7139ZM16.9108 0.854366C17.2229 0.854366 17.4758 1.10726 17.4758 1.41939V26.6061C17.4758 26.9182 17.2229 27.1711 16.9108 27.1711H16.9085C16.5963 27.1711 16.3435 26.9182 16.3435 26.6061V1.41939C16.3435 1.10726 16.5963 0.854366 16.9085 0.854366H16.9108ZM14.3123 0.854366C14.6245 0.854366 14.8774 1.10726 14.8774 1.41939V26.6061C14.8774 26.9182 14.6245 27.1711 14.3123 27.1711H14.3101C13.9979 27.1711 13.745 26.9182 13.745 26.6061V1.41939C13.745 1.10726 13.9979 0.854366 14.3101 0.854366H14.3123Z" fill="white"/>
<path d="M28.9698 31.1457H28.4174C28.1052 31.1457 27.8523 30.8928 27.8523 30.5807V30.0134H30.1022V29.159H27.8523V5.394C27.8523 5.08187 28.1052 4.82898 28.4174 4.82898H28.9698V3.97461H20.073V4.82898H20.6255C20.9377 4.82898 21.1906 5.08187 21.1906 5.394V29.159H10.0451V5.394C10.0451 5.08187 10.298 4.82898 10.6101 4.82898H11.1626V3.97461H2.26578V4.82898H2.81827C3.1304 4.82898 3.38329 5.08187 3.38329 5.394V29.159H1.13232V30.0134H3.38215V30.5807C3.38215 30.8928 3.12926 31.1457 2.81713 31.1457H0V32.0001H31.2721V31.1457H28.9698ZM5.41326 31.1457C5.10114 31.1457 4.84824 30.8928 4.84824 30.5807V5.394C4.84824 5.08187 5.10114 4.82898 5.41326 4.82898H5.41554C5.72767 4.82898 5.98056 5.08187 5.98056 5.394V30.5807C5.98056 30.8928 5.72767 31.1457 5.41554 31.1457H5.41326ZM8.01168 31.1457C7.69955 31.1457 7.44666 30.8928 7.44666 30.5807V5.394C7.44666 5.08187 7.69955 4.82898 8.01168 4.82898H8.01395C8.32608 4.82898 8.57897 5.08187 8.57897 5.394V30.5807C8.57897 30.8928 8.32608 31.1457 8.01395 31.1457H8.01168ZM20.073 31.1457H10.6101C10.298 31.1457 10.0451 30.8928 10.0451 30.5807V30.0134H21.1906V30.5807C21.1906 30.8928 20.9377 31.1457 20.6255 31.1457H20.073ZM23.2205 31.1457C22.9084 31.1457 22.6555 30.8928 22.6555 30.5807V5.394C22.6555 5.08187 22.9084 4.82898 23.2205 4.82898H23.2228C23.5349 4.82898 23.7878 5.08187 23.7878 5.394V30.5807C23.7878 30.8928 23.5349 31.1457 23.2228 31.1457H23.2205ZM25.8189 31.1457C25.5068 31.1457 25.2539 30.8928 25.2539 30.5807V5.394C25.2539 5.08187 25.5068 4.82898 25.8189 4.82898H25.8212C26.1334 4.82898 26.3862 5.08187 26.3862 5.394V30.5807C26.3862 30.8928 26.1334 31.1457 25.8212 31.1457H25.8189Z" fill="white"/>
<path d="M103.373 8.64502C103.191 9.56432 102.919 10.5736 102.556 11.6729C102.219 12.746 101.674 14.1893 100.921 16.0017L97.0708 25.0454L93.3754 16.0017C92.6486 14.187 92.1041 12.7448 91.7407 11.6729C91.3773 10.5747 91.1187 9.56546 90.9627 8.64502H85.7499C86.3981 9.59052 87.0075 10.6249 87.5782 11.7492C88.1751 12.8736 88.8757 14.3921 89.6788 16.3081L95.2801 29.7194H98.7807L104.382 16.3081C105.211 14.3921 105.912 12.8724 106.482 11.7492C107.053 10.6249 107.663 9.59052 108.311 8.64502H103.371H103.373Z" fill="white"/>
<path d="M125.632 13.5879C124.957 11.9031 123.959 10.5748 122.637 9.60427C121.314 8.60865 119.682 8.11084 117.735 8.11084C116.283 8.11084 114.909 8.39221 113.611 8.95381C112.34 9.51542 111.213 10.3071 110.227 11.3301C109.242 12.3257 108.463 13.5013 107.893 14.8558C107.348 16.2091 107.076 17.6661 107.076 19.2233C107.076 20.7805 107.348 22.2375 107.893 23.5908C108.463 24.9191 109.242 26.0821 110.227 27.0778C111.237 28.0734 112.379 28.8537 113.65 29.4153C114.948 29.9769 116.32 30.2583 117.773 30.2583C119.46 30.2583 120.846 29.9894 121.935 29.4529C123.05 28.8913 123.918 28.2522 124.542 27.5368C125.191 26.7964 125.657 26.1448 125.943 25.5821L124.542 24.3939C123.971 25.2369 123.205 25.9147 122.247 26.4239C121.313 26.9354 120.12 27.1905 118.668 27.1905C117.216 27.1905 115.893 26.8328 114.7 26.1175C113.533 25.4021 112.6 24.4452 111.899 23.2434C111.226 22.0165 110.889 20.6757 110.889 19.2199H126.682C126.682 17.125 126.332 15.2488 125.631 13.5879H125.632ZM111.2 16.3481C111.563 14.7646 112.264 13.5127 113.3 12.5934C114.337 11.6479 115.685 11.1752 117.345 11.1752C118.876 11.1752 120.069 11.6479 120.925 12.5934C121.78 13.5127 122.351 14.7658 122.637 16.3481H111.2Z" fill="white"/>
<path d="M78.2987 8.15072V8.14844C75.4462 8.14844 72.9697 8.88889 70.8691 10.3709L70.9853 14.3557H71.2576C72.0869 13.4102 73.0722 12.6572 74.2137 12.0956C75.3551 11.5078 76.5353 11.215 77.7542 11.215C79.128 11.215 80.1657 11.6491 80.8663 12.5182C81.5669 13.3601 81.9941 14.7282 82.1502 16.6181C79.5301 16.2854 77.262 16.3492 75.3426 16.8106C73.4231 17.2697 71.9331 18.0876 70.8691 19.2632C69.8325 20.4126 69.313 21.8809 69.313 23.6694C69.313 24.9214 69.6251 26.0446 70.2471 27.0413C70.8691 28.0369 71.7121 28.8287 72.776 29.4176C73.84 29.9792 75.0327 30.2594 76.3553 30.2594C77.6778 30.2594 78.7931 29.9655 79.7784 29.3789C80.7638 28.766 81.502 27.8968 81.9952 26.7725H82.1513V29.9906H85.8854V18.1126C85.8592 14.6131 85.2498 12.0842 84.0571 10.5259C82.8644 8.94243 80.9449 8.15072 78.2998 8.15072H78.2987ZM82.1889 22.7456C82.1376 23.5635 81.8768 24.3176 81.4108 25.0068C80.9449 25.6721 80.3343 26.2063 79.5825 26.6153C78.8557 26.998 78.0401 27.1905 77.1322 27.1905C75.8609 27.1905 74.8755 26.8841 74.1761 26.2712C73.4755 25.6584 73.1258 24.7892 73.1258 23.6649C73.1258 21.8775 73.9425 20.5869 75.5761 19.7952C77.2358 18.9784 79.4401 18.7221 82.1889 19.0285V22.7456Z" fill="white"/>
<path d="M146.46 14.5448V14.5471C146.28 13.3464 145.93 12.2608 145.411 11.2902C144.919 10.3197 144.178 9.55301 143.194 8.99141C142.234 8.4036 140.977 8.11084 139.421 8.11084C138.149 8.11084 137.139 8.26463 136.386 8.56992C135.635 8.87635 135.025 9.28531 134.558 9.79565C134.117 10.2821 133.703 10.8437 133.313 11.4816H133.041V8.3774L127.867 9.45049V9.6806C128.229 10.2422 128.515 10.83 128.722 11.4429C128.93 12.0557 129.086 12.8099 129.189 13.703C129.293 14.5721 129.344 15.6965 129.344 17.0748V21.2134C129.344 22.0188 129.332 22.823 129.307 23.6284H129.308V29.7183H133.045V22.3503C133.042 21.9709 133.04 21.5916 133.04 21.2123V18.4156C133.117 17.2161 133.312 16.0667 133.623 14.9674C133.96 13.8693 134.531 12.9625 135.335 12.2471C136.165 11.5317 137.344 11.174 138.874 11.174C139.86 11.174 140.639 11.3916 141.208 11.8256C141.778 12.2596 142.194 12.8212 142.454 13.5116C142.713 14.2019 142.882 14.9674 142.959 15.8104C143.037 16.6272 143.077 17.4451 143.077 18.263V21.2134C143.077 21.57 143.073 21.9254 143.069 22.2819V29.7195H146.772V18.263C146.772 16.986 146.667 15.7466 146.46 14.5459V14.5448Z" fill="white"/>
<path d="M52.7258 25.0536L42.7297 1.98682H37.4782C37.8154 3.36633 38.009 4.77205 38.0626 6.20169C38.14 7.63133 38.1788 9.06211 38.1788 10.494V30.0043H41.8742V9.38335L50.8314 30.0043H54.1577L63.1149 9.38335V30.0043H67.0051V10.494C67.0051 9.06325 67.0313 7.63361 67.0825 6.20169C67.16 4.77091 67.3685 3.36633 67.7045 1.98682H62.8415L52.7269 25.0536H52.7258Z" fill="white"/>
</svg>
